<?xml version='1.0' encoding='utf-8'?>
<svg xmlns="http://www.w3.org/2000/svg" version="1.1" viewBox="0 0 814.96 1052.4"><defs><clipPath id="a"><path d="m0 841.89h651.97v-841.89h-651.97v841.89z"/></clipPath><clipPath id="b"><path d="m0 841.89h595.28v-841.89h-595.28v841.89z"/></clipPath></defs><g transform="matrix(1.25 0 0 -1.25 0 1052.4)"><g transform="translate(-65.6)"><g clip-path="url(#a)"><g transform="translate(307.78 525.67)"><path d="m0 0h-5.4c-13.722 12.286-46.799 9.166-61.56 0-4.838 4.072-11.269 9.742-19.44 10.8-10.059 1.303-16.808-3.879-22.68-7.2 0.695 9.161 1.6 20.92 0.72 30.96-0.621 7.086-4.412 13.699 0.36 18 1.999-1.467 6.065-0.519 8.28 0 2.26-3.256 9.397-2.45 11.88 0 17.992-8.851 16.512 29.047 9.72 37.8-6.104 2.322-13.25 3.426-19.8 5.4-2.16 0.651-4.333 1.869-6.48 2.16-6.728 0.911-11.828-1.536-16.92-3.96-3.504-1.668-8.363-3.646-10.08-6.12-1.164-1.677-1.496-5.257-2.16-7.92-1.99-7.983-4.388-16.205-9-21.6-2.286-2.674-4.66-3.878-6.84-6.48-13.598-16.229-25.622-40.467-23.4-69.12-1.638-3.466-2.447-8.957-1.8-12.96 0.996-6.167 6.245-9.427 10.8-12.24 4.683-2.891 11.487-6.291 15.84-7.92 11.123-9.996 30.776-17.743 49.32-20.16 13.155-1.715 25.586 0.147 36 2.88 6.306 1.655 10.689 5.145 17.64 3.96" fill="#fff" fill-rule="evenodd"/></g><g transform="translate(187.9 596.59)"><path d="m0 0c1.389 0.083 0.806-3.212 0-3.24-0.72 0.398 0.438 1.933 0 3.24" fill="#2b2b2a" fill-rule="evenodd"/></g><g transform="translate(142.54 514.15)"><path d="m0 0c6.414-1.026 10.5-4.381 14.4-7.92-7.497-1.316-12.514 2.476-14.4 7.92" fill="#2b2b2a" fill-rule="evenodd"/></g><g transform="translate(190.06 524.95)"><path d="m0 0c0.169 1.249-1.954 0.207-2.16 1.08 2.289 1.551 4.659 3.021 5.76 5.76 0.078 1.398-2.173 0.467-2.16 1.8 3.381 6.193 2.793 18.361-1.44 23.04-0.388 13.652-6.86 21.219-9.36 32.76-0.174 1.134 1.105 0.815 0.72 2.16-1.492 1.893-0.78 6.096-0.36 9 0.84-4.2 2.982-7.099 6.84-8.28-0.536-6.421 4.242-10.538 10.08-8.28-0.293 5.693 0.459 10.341 1.08 15.12 1.109-6.53-0.703-13.827 2.52-18 10.614-2.147 5.798 11.15 8.28 16.2 1.141-5.009-0.175-10.605-0.36-15.48 1.031-0.41 1.75-1.13 2.16-2.16 4.105-0.505 5.538 1.662 7.92 2.88 0.126 4.508 0.65 6.493 1.08 10.8 0.838-3.122 0.122-7.798 0.36-11.52 0.804-0.156 1.284-0.636 1.44-1.44 7.895-1.26 8.729 11.978 8.64 16.92-0.11 6.092-2.191 12.657-4.32 16.2-4.606 0.523-9.345 2.327-14.04 3.6-3.448 0.934-6.932 2.461-10.08 2.88-9.739 1.295-16.429-5.268-23.4-8.64-1.751-11.689-5.872-21.007-10.8-29.52-2.716-2.564-6.518-4.042-7.92-7.92-8.568-11.041-20.242-30.747-22.32-49.32-1.248-11.156 1.343-16.26 7.2-21.6 4.379-3.994 9.244-6.087 14.04-8.28-6.913 1.127-13.872 2.208-19.08 5.04-2.794-10.438 9.199-14.779 20.16-15.841 8.758-0.846 17.944-0.595 24.48-0.359-4.695-2.025-11.595-1.845-13.32-6.84 5.11-3.962 15.797-6.167 26.28-7.92 8.17-1.366 20.332-2.507 28.08-1.44 5.508 0.758 12.45 4.18 10.8 11.519 10.498-0.439 15.139 8.553 11.52 18 5.001 4.105-0.79 9.914-0.36 14.401 0.739-1.661 1.777-3.024 3.6-3.6 3.022 3.023 7.993 5.952 7.56 10.8-0.394 4.42-5.875 5.552-10.08 7.2-3.407-1.274-5.852-3.51-10.44-3.601-5.622 5.925-13.599 12.673-25.2 10.8-7.399-1.195-11.701-7.362-16.92-10.8-3.824 1.933-7.377-2.372-10.08-2.52 1.153 1.848 3.925 2.075 3.6 5.4m72.72-63c-6.951 1.185-11.334-2.305-17.64-3.96-10.413-2.733-22.845-4.595-36-2.88-18.544 2.417-38.197 10.164-49.32 20.16-4.353 1.629-11.157 5.029-15.84 7.92-4.555 2.812-9.804 6.073-10.8 12.24-0.646 4.003 0.163 9.494 1.8 12.96-2.222 28.653 9.803 52.891 23.4 69.12 2.18 2.602 4.554 3.806 6.84 6.48 4.612 5.395 7.01 13.617 9 21.6 0.664 2.663 0.996 6.243 2.16 7.92 1.718 2.474 6.576 4.452 10.08 6.12 5.092 2.424 10.192 4.871 16.92 3.96 2.147-0.291 4.321-1.509 6.48-2.16 6.551-1.975 13.697-3.078 19.8-5.4 6.793-8.753 8.272-46.651-9.72-37.8-2.483-2.45-9.62-3.256-11.88 0-2.214-0.52-6.281-1.467-8.28 0-4.772-4.301-0.981-10.914-0.36-18 0.88-10.04-0.025-21.8-0.72-30.96 5.872 3.321 12.621 8.502 22.68 7.2 8.171-1.058 14.602-6.728 19.44-10.8 14.761 9.166 47.839 12.286 61.56 0h5.4" fill="#2b2b2a" fill-rule="evenodd"/></g><g transform="translate(156.94 506.23)"><path d="m0 0c-3.901 3.539-7.987 6.894-14.4 7.92 1.886-5.444 6.903-9.236 14.4-7.92m30.96 87.12c0.806 0.028 1.389 3.323 0 3.24 0.438-1.307-0.72-2.842 0-3.24m-1.44-73.8c2.703 0.148 6.255 4.453 10.08 2.52 5.218 3.438 9.521 9.605 16.92 10.8 11.601 1.874 19.578-4.874 25.2-10.8 4.588 0.092 7.033 2.327 10.44 3.6 4.205-1.648 9.685-2.78 10.08-7.2 0.432-4.847-4.539-7.777-7.56-10.8-1.824 0.577-2.861 1.939-3.6 3.6-0.43-4.486 5.361-10.296 0.36-14.4 3.619-9.448-1.023-18.44-11.52-18 1.649-7.34-5.292-10.762-10.8-11.52-7.748-1.066-19.911 0.074-28.08 1.441-10.483 1.752-21.171 3.958-26.28 7.919 1.724 4.996 8.625 4.815 13.32 6.84-6.537-0.236-15.723-0.487-24.48 0.36-10.961 1.061-22.954 5.402-20.16 15.841 5.208-2.833 12.167-3.914 19.08-5.041-4.797 2.193-9.661 4.287-14.04 8.28-5.857 5.341-8.448 10.444-7.2 21.6 2.077 18.573 13.752 38.28 22.32 49.32 1.401 3.879 5.204 5.357 7.92 7.92 4.927 8.513 9.048 17.832 10.8 29.52 6.971 3.372 13.661 9.936 23.4 8.64 3.147-0.419 6.632-1.946 10.08-2.88 4.695-1.273 9.434-3.076 14.04-3.6 2.128-3.543 4.21-10.108 4.32-16.2 0.089-4.942-0.745-18.18-8.64-16.92-0.157 0.804-0.637 1.284-1.44 1.44-0.239 3.722 0.478 8.398-0.36 11.52-0.43-4.307-0.954-6.291-1.08-10.8-2.382-1.218-3.815-3.385-7.92-2.88-0.41 1.031-1.13 1.75-2.16 2.16 0.185 4.876 1.501 10.471 0.36 15.48-2.482-5.05 2.334-18.347-8.28-16.2-3.223 4.174-1.411 11.47-2.52 18-0.621-4.779-1.373-9.427-1.08-15.12-5.838-2.258-10.616 1.859-10.08 8.28-3.858 1.182-6.001 4.08-6.84 8.28-0.421-2.904-1.133-7.107 0.36-9 0.385-1.345-0.894-1.026-0.72-2.16 2.499-11.54 8.972-19.108 9.36-32.76 4.233-4.679 4.82-16.846 1.44-23.04-0.013-1.333 2.237-0.402 2.16-1.8-1.101-2.739-3.471-4.209-5.76-5.76 0.206-0.873 2.329 0.169 2.16-1.08 0.325-3.324-2.448-3.552-3.6-5.4" fill="#fde3d0" fill-rule="evenodd"/></g><g transform="translate(186.81 588.67)"><path d="m0 0s2.167 2 2.25 4.417c0.083 2.416-0.416 2.583-0.416 2.583l-2.751-5.667 0.917-1.333z" fill="#2b2b2a" fill-rule="evenodd"/></g><g transform="translate(198.81 582.42)"><path d="m0 0s-4.5 7.5 0.167 16.167l0.25-3.834-0.584-6 0.834-5.833-0.667-0.5z" fill="#2b2b2a" fill-rule="evenodd"/></g><g transform="translate(208.39 580.59)"><path d="m0 0 0.583 2.583 0.834 5.417-0.084 7.75s2.584-4.417 1.084-16.333" fill="#2b2b2a" fill-rule="evenodd"/></g><g transform="translate(221.81 580.75)"><path d="m0 0s0.956 12.613-1.167 12.083c-0.333-0.083-0.666-11.75-0.666-11.75l1.833-0.333z" fill="#2b2b2a" fill-rule="evenodd"/></g></g></g></g><g transform="matrix(1.25 0 0 -1.25 0 1052.4)"><g transform="translate(75.2)"><g clip-path="url(#a)"><g transform="translate(412.76 462.4)"><path d="m0 0h5.399c11.994-4.904 26.485-9.301 41.761-7.92 17.413 1.574 33.569 7.268 45.36 13.68 3.86 2.099 6.85 4.953 10.44 7.2 3.132 1.961 7.5 3.081 11.16 5.04 1.609 0.861 3.026 2.558 4.68 3.6 1.862 1.174 4.113 1.821 5.399 2.88 5.11 4.207 6.927 15.508 2.881 22.32 3.015 19.094-3.871 35.96-10.801 49.68-5.346 10.587-12.255 20.3-20.159 25.92-2.843 5.524-5.349 11.734-7.2 17.64-0.733 2.338-0.818 4.69-1.441 7.2-1.358 5.483-6.388 7.614-11.519 10.08-4.05 1.946-8.412 3.566-12.24 3.96-5.219 0.537-7.686-1.146-11.16-2.16-6.94-2.026-13.482-3.359-19.8-5.04-6.841-8.938-8.242-47.216 10.08-38.16 2.315-3.053 9.465-2.646 11.88 0 1.979-1.307 6.847-0.476 8.28-0.36 4.312-4.696 0.552-10.426 0-16.2-1.032-10.795-0.074-22.707 0.72-33.12-5.721 4.562-12.579 9.087-22.321 7.92-8.466-1.014-15.131-6.845-20.16-10.8-12.788 7.751-36.594 10.936-52.559 5.039-5.102-1.882-7.977-6.025-14.401-5.039" fill="#fff" fill-rule="evenodd"/></g><g transform="translate(518.24 506.32)"><path d="m0 0c7.525-1.4 12.387 2.643 14.4 7.92-6.373-1.067-10.629-4.251-14.4-7.92m-30.6 87.12c-0.841 0.718 0.43 3.55-1.08 3.6-0.018-1.578-0.252-3.372 1.08-3.6m0.72-74.16c0.397 1.772-4.463 3.145-3.24 5.76-0.341 1.301 1.418 0.502 2.16 0.72-1.834 2.005-4.642 3.039-5.76 5.76 6e-3 1.314 1.45 1.19 2.16 1.8-3.224 6.19-3.039 18.818 1.44 23.4 0.079 6.39 1.78 11.612 3.6 16.92 0.835 2.435 1.384 5.264 2.161 6.84 0.414 0.842 2.456 2.465 2.88 4.32 1.205 5.284 0.223 10.199 0.719 15.48-2.103-2.816-2.505-7.335-7.2-7.56 0.686-6.879-4.867-10.966-10.08-8.64 0.507 5.667-0.86 9.459-0.72 14.76-1.971-5.65 0.364-13.383-2.88-17.64-10.857-2.207-6.063 12.547-8.28 16.92-0.332-3.557-0.794-7.656-0.36-11.52 0.166-1.468 1.051-2.565 0.72-3.96-1.109-4.676-7.44-2.672-10.08 0-0.351 4.249-0.632 6.984-1.08 11.52-0.838-3.362-0.121-8.278-0.36-12.24-7.265-5.122-8.46 4.214-9.359 11.52-0.948 7.695 0.821 16.832 3.599 20.16 8.133 1.827 16.277 3.644 23.401 6.48 11.012 0.093 17.205-4.635 24.12-8.64 2.736-14.543 6.572-27.987 17.279-34.56 8.61-11.857 19.155-29.86 23.04-48.24 0.736-3.484 1.757-10.695 0.72-15.12-1.969-8.41-12.765-15.463-21.24-18.36 6.113 0.249 13.908 1.931 18.72 4.681 1.325-2.39 0.698-3.925 0.361-6.841-7.601-10.083-27.981-10.26-44.641-9 4.225-2.616 11.543-2.137 13.32-7.2-6.157-4.049-18.61-7.234-30.599-8.64-7.827-0.917-16.315-1.428-23.04-0.72-5.658 0.596-12.87 3.313-11.521 11.16-9.568 0.253-15.738 8.329-11.519 18-4.627 4.761-0.317 9.2 0.719 14.76-1.258-0.782-1.588-2.492-2.88-3.24-5.336 1.762-12.358 10.778-5.759 15.48 1.08 0.77 4.303 2.131 5.759 2.16 3.82 0.079 7.826-4.24 11.161-3.6 1.473 0.283 3.03 2.882 5.399 4.681 4.404 3.341 10.747 7.464 20.16 6.119 7.454-1.065 11.952-6.7 16.561-10.8 4.289 1.387 7.339-1.106 10.439-2.88" fill="#fde3d0" fill-rule="evenodd"/></g><g transform="translate(486.56 597.04)"><path d="m0 0c1.51-0.05 0.238-2.882 1.08-3.6-1.332 0.228-1.099 2.021-1.08 3.6" fill="#2b2b2a" fill-rule="evenodd"/></g><g transform="translate(532.64 514.24)"><path d="m0 0c-2.014-5.277-6.875-9.32-14.4-7.92 3.77 3.669 8.027 6.853 14.4 7.92" fill="#2b2b2a" fill-rule="evenodd"/></g><g transform="translate(477.92 522.16)"><path d="m0 0c-4.608 4.101-9.106 9.735-16.561 10.8-9.413 1.346-15.755-2.778-20.16-6.119-2.369-1.799-3.925-4.398-5.399-4.681-3.335-0.64-7.341 3.679-11.16 3.601-1.456-0.03-4.68-1.391-5.76-2.161-6.599-4.702 0.424-13.718 5.76-15.48 1.292 0.748 1.622 2.458 2.88 3.24-1.037-5.559-5.347-9.999-0.72-14.76-4.219-9.67 1.951-17.747 11.519-18-1.348-7.847 5.864-10.564 11.521-11.16 6.726-0.708 15.214-0.197 23.04 0.72 11.989 1.406 24.442 4.591 30.6 8.641-1.778 5.062-9.096 4.584-13.321 7.199 16.66-1.26 37.04-1.083 44.641 9 0.338 2.916 0.965 4.451-0.36 6.841-4.813-2.749-12.608-4.432-18.72-4.681 8.474 2.897 19.27 9.95 21.239 18.36 1.037 4.425 0.017 11.636-0.72 15.12-3.885 18.38-14.43 36.383-23.041 48.24-10.707 6.573-14.543 20.017-17.279 34.56-6.915 4.006-13.107 8.733-24.12 8.64-7.124-2.836-15.268-4.653-23.401-6.48-2.778-3.328-4.546-12.465-3.599-20.16 0.899-7.306 2.095-16.642 9.359-11.52 0.24 3.962-0.477 8.878 0.361 12.24 0.447-4.536 0.728-7.271 1.08-11.52 2.639-2.672 8.97-4.676 10.08 0 0.33 1.395-0.555 2.492-0.721 3.96-0.434 3.864 0.028 7.963 0.36 11.52 2.217-4.373-2.577-19.127 8.281-16.92 3.243 4.257 0.908 11.99 2.88 17.64-0.141-5.301 1.226-9.093 0.719-14.76 5.213-2.326 10.766 1.761 10.08 8.64 4.696 0.225 5.097 4.744 7.201 7.56-0.497-5.281 0.485-10.196-0.72-15.48-0.424-1.854-2.466-3.477-2.88-4.32-0.776-1.575-1.325-4.405-2.16-6.84-1.821-5.308-3.522-10.53-3.601-16.92-4.478-4.581-4.664-17.209-1.439-23.4-0.71-0.61-2.155-0.486-2.16-1.8 1.118-2.721 3.925-3.755 5.759-5.759-0.742-0.219-2.501 0.58-2.16-0.721-1.222-2.614 3.637-3.987 3.24-5.76-3.1 1.775-6.15 4.267-10.439 2.88m-110.88 3.601c6.424-0.987 9.299 3.156 14.401 5.039 15.964 5.896 39.771 2.712 52.559-5.039 5.028 3.955 11.693 9.785 20.16 10.799 9.741 1.167 16.6-3.358 22.321-7.92-0.794 10.414-1.752 22.325-0.72 33.12 0.552 5.775 4.311 11.504 0 16.2-1.433-0.116-6.301-0.946-8.28 0.36-2.415-2.645-9.565-3.053-11.88 0-18.323-9.056-16.921 29.222-10.08 38.16 6.318 1.681 12.86 3.014 19.799 5.04 3.475 1.015 5.942 2.697 11.161 2.161 3.828-0.395 8.19-2.015 12.24-3.961 5.131-2.465 10.161-4.597 11.519-10.08 0.622-2.509 0.707-4.861 1.441-7.2 1.85-5.905 4.357-12.116 7.2-17.64 7.904-5.619 14.812-15.333 20.159-25.92 6.93-13.72 13.816-30.586 10.801-49.68 4.046-6.811 2.228-18.113-2.881-22.319-1.286-1.06-3.537-1.706-5.399-2.881-1.655-1.042-3.071-2.738-4.68-3.6-3.66-1.959-8.028-3.079-11.16-5.04-3.59-2.247-6.58-5.1-10.441-7.2-11.791-6.412-27.946-12.105-45.359-13.68-15.276-1.381-29.768 3.016-41.761 7.92h-5.399" fill="#2b2b2a" fill-rule="evenodd"/></g><g transform="translate(486.57 596.55)"><path d="m0 0s-0.625-6.375 1.875-6 0.75 1.375 0.75 1.375l-2.625 6.75" fill="#2b2b2a" fill-rule="evenodd"/></g><g transform="translate(476.57 581.68)"><path d="m0 0 0.75 4.375v4.75l-0.75 2-0.5 2.125 0.25 3.5s-3.625-6.125-0.75-14.75" fill="#2b2b2a" fill-rule="evenodd"/></g><g transform="translate(465.57 597.05)"><path d="m0 0s2-2.25 1.875-6.375-0.75-8.375 0.625-9.625l-3-1.25 1 4.75-0.125 4.5-0.125 3.5-0.25 4.5z" fill="#2b2b2a" fill-rule="evenodd"/></g><g transform="translate(459.19 579.43)"><path d="m0 0s-4.08 4.262-4.125 16.875l-1.625-6.375 0.125-3.125 0.875-6.75 4.75-0.625z" fill="#2b2b2a" fill-rule="evenodd"/></g></g></g></g><path d="m417.15 646.89c-14.304-24.759-59.307-70.956-94.538-97.046-54.595-40.431-64.856-50.115-73.669-69.519-11.264-24.8-11.138-60.035 0.31616-88.419 15.785-39.118 57.736-66.047 94.417-60.609 38.1 5.6488 66.493 33.98 81.01 80.836 2.2024 7.1084 2.5522 6.9729 4.9375-1.9126 16.817-62.645 79.458-97.01 128.35-70.416 32.955 17.924 55.638 58.437 55.638 99.372 0 39.584-14.004 61.078-61.888 94.988-52.144 36.927-98.834 83.531-118.68 118.46l-6.2374 10.977-9.6574-16.715z" fill="#3b82f6" stroke="#2b2b2a" stroke-width="5.315"/><g transform="matrix(1.1749 0 0 -.64333 54.613 797.59)"><g transform="translate(4.8,-11.2)"><g clip-path="url(#b)"><g transform="translate(303.11,531.78)"><path d="m0 0c0-21.478-10.695-38.889-23.889-38.889s-23.889 17.411-23.889 38.889 10.695 38.889 23.889 38.889 23.889-17.411 23.889-38.889" fill="#fff"/></g><g transform="translate(292.67,516.89)"><path d="m0 0c0-11.046-5.472-20-12.223-20-6.75 0-12.222 8.954-12.222 20 0 11.045 5.472 20 12.222 20 6.751 0 12.223-8.955 12.223-20"/></g><g transform="translate(292.67,516.89)"><path d="m0 0c0-11.046-5.472-20-12.223-20-6.75 0-12.222 8.954-12.222 20 0 11.045 5.472 20 12.222 20 6.751 0 12.223-8.955 12.223-20z" stroke-width="0"/></g><g transform="translate(355.34,531.78)"><path d="m0 0c0-21.478-10.695-38.889-23.89-38.889-13.193 0-23.888 17.411-23.888 38.889s10.695 38.889 23.888 38.889c13.195 0 23.89-17.411 23.89-38.889" fill="#fff"/></g><g transform="translate(344.89,516.89)"><path d="m0 0c0-11.046-5.471-20-12.223-20-6.75 0-12.221 8.954-12.221 20 0 11.045 5.471 20 12.221 20 6.752 0 12.223-8.955 12.223-20" fill="#24265d"/></g><g transform="translate(344.89,516.89)"><path d="m0 0c0-11.046-5.471-20-12.223-20-6.75 0-12.221 8.954-12.221 20 0 11.045 5.471 20 12.221 20 6.752 0 12.223-8.955 12.223-20z" stroke-width="0"/></g><g transform="translate(322,459)"><path d="m0 0c0-7.057-5.721-12.778-12.777-12.778-7.058 0-12.779 5.721-12.779 12.778s5.721 12.778 12.779 12.778c7.056 0 12.777-5.721 12.777-12.778" fill="#b3e6fa"/></g><g transform="translate(322,459)"><path d="m0 0c0-7.057-5.721-12.778-12.777-12.778-7.058 0-12.779 5.721-12.779 12.778s5.721 12.778 12.779 12.778c7.056 0 12.777-5.721 12.777-12.778z" fill="#ffd5d5" stroke-width="0"/></g><g transform="translate(251.18,432.24)"><path d="m0 0c2.622-0.444 25.688-32.645 49.69-35.475 37.128-4.378 73.617 37.474 76.625 38.873 15.25 7.093-45.124-72.326-70.08-76.171-25.872-3.985-73.116 75.627-56.245 72.773" fill="#231f20"/></g><g transform="translate(251.18,432.24)"><path d="m0 0c2.622-0.444 25.688-32.645 49.69-35.475 37.128-4.378 73.617 37.474 76.625 38.873 15.25 7.093-45.124-72.326-70.08-76.171-25.872-3.985-73.116 75.627-56.245 72.773z" fill="none" stroke="#231f20" stroke-width="2"/></g><g transform="translate(333.06,381.7)"><path d="m0 0c0-7.301-11.93-13.22-26.646-13.22s-26.646 5.919-26.646 13.22c0 7.302 11.93 13.221 26.646 13.221s26.646-5.919 26.646-13.221" fill="#00A9FF"/></g><g transform="translate(333.06,381.7)"><path d="m0 0c0-7.301-11.93-13.22-26.646-13.22s-26.646 5.919-26.646 13.22c0 7.302 11.93 13.221 26.646 13.221s26.646-5.919 26.646-13.221z" fill="none" stroke="#231f20" stroke-width="2"/></g></g></g><path transform="matrix(.8 0 0 -.8 0 841.89)" d="m326.97 337.84 49.144 0.87672-33.315-10.521z" fill="#2b0000" stroke-width="0"/><path d="m352.96 572.04-39.315-0.70137 26.652 8.4165z" fill="#2b0000" stroke-width="0"/></g><path d="m512.51 355.8s64.827-13.843 79.356 63.925c9.3684 50.148 1.0467 21.265-15.981-7.7152-11.794-20.073-18.099-36.304-60.068-43.535-40.164-6.9201-3.3065-12.675-3.3065-12.675z" fill="#ffd5d5"/></svg>