<!DOCTYPE svg PUBLIC "-//W3C//DTD SVG 1.1//EN" "http://www.w3.org/Graphics/SVG/1.1/DTD/svg11.dtd">
<!-- Uploaded to: SVG Repo, www.svgrepo.com, Transformed by: SVG Repo Mixer Tools -->
<svg fill="#000000" width="800px" height="800px" viewBox="0 0 24 24" id="delivery-truck" data-name="Flat Color" xmlns="http://www.w3.org/2000/svg" class="icon flat-color">
<g id="SVGRepo_bgCarrier" stroke-width="0"/>
<g id="SVGRepo_tracerCarrier" stroke-linecap="round" stroke-linejoin="round"/>
<g id="SVGRepo_iconCarrier">
<path id="primary" d="M20.48,9.84l-.68-.17-.63-2.23A2,2,0,0,0,17.25,6H14a2,2,0,0,0-2-2H4A2,2,0,0,0,2,6V16a2,2,0,0,0,2,2H20a2,2,0,0,0,2-2V11.78A2,2,0,0,0,20.48,9.84Z" style="fill: #334155;"/>
<path id="secondary" d="M10,17a3,3,0,1,1-3-3A3,3,0,0,1,10,17Zm7-3a3,3,0,1,0,3,3A3,3,0,0,0,17,14ZM11,7H5A1,1,0,0,0,5,9h6a1,1,0,0,0,0-2Z" style="fill: #3b82f6;"/>
</g>
</svg>